<svg width="40" height="40" viewBox="0 0 40 40" fill="none" xmlns="http://www.w3.org/2000/svg">
<g id="24 / basic / user">
<path id="icon" fill-rule="evenodd" clip-rule="evenodd" d="M20 38.3332C9.87474 38.3332 1.66663 30.1251 1.66663 19.9998C1.66663 9.87462 9.87474 1.6665 20 1.6665C30.1252 1.6665 38.3333 9.87462 38.3333 19.9998C38.3333 30.1251 30.1252 38.3332 20 38.3332ZM32.3325 28.5409C34.0143 26.117 35 23.1735 35 19.9998C35 11.7156 28.2842 4.99984 20 4.99984C11.7157 4.99984 4.99996 11.7156 4.99996 19.9998C4.99996 23.1735 5.9856 26.117 7.66747 28.5409C9.54321 26.0633 13.951 24.9998 20 24.9998C26.049 24.9998 30.4567 26.0633 32.3325 28.5409ZM29.9411 31.2328C29.4533 29.4788 25.9489 28.3332 20 28.3332C14.051 28.3332 10.5466 29.4788 10.0588 31.2328C12.7055 33.5768 16.1865 34.9998 20 34.9998C23.8134 34.9998 27.2945 33.5768 29.9411 31.2328ZM20 9.99984C15.9651 9.99984 13.3333 12.9261 13.3333 16.6665C13.3333 22.3788 16.2681 24.9998 20 24.9998C23.6968 24.9998 26.6666 22.4659 26.6666 16.9998C26.6666 13.2025 24.0236 9.99984 20 9.99984ZM16.6666 16.6665C16.6666 20.4486 18.0303 21.6665 20 21.6665C21.9628 21.6665 23.3333 20.4972 23.3333 16.9998C23.3333 14.9172 22.0261 13.3332 20 13.3332C17.8895 13.3332 16.6666 14.6929 16.6666 16.6665Z" fill="#364652"/>
</g>
</svg>
